<?xml version="1.0" encoding="UTF-8"?>
<!-- Do not edit this file with editors other than draw.io -->
<!DOCTYPE svg PUBLIC "-//W3C//DTD SVG 1.1//EN" "http://www.w3.org/Graphics/SVG/1.1/DTD/svg11.dtd">
<svg xmlns="http://www.w3.org/2000/svg" style="background: transparent; background-color: transparent; color-scheme: light dark;" xmlns:xlink="http://www.w3.org/1999/xlink" version="1.1" width="501px" height="577px" viewBox="-0.5 -0.5 501 577" content="&lt;mxfile host=&quot;app.diagrams.net&quot; agent=&quot;Mozilla/5.0 (Windows NT 10.0; Win64; x64) AppleWebKit/537.36 (KHTML, like Gecko) Chrome/132.0.0.0 Safari/537.36&quot; version=&quot;26.0.11&quot;&gt;&#10;  &lt;diagram name=&quot;Page-1&quot; id=&quot;egEt8ijwYmFO9_lSSHOj&quot;&gt;&#10;    &lt;mxGraphModel dx=&quot;808&quot; dy=&quot;656&quot; grid=&quot;1&quot; gridSize=&quot;10&quot; guides=&quot;1&quot; tooltips=&quot;1&quot; connect=&quot;1&quot; arrows=&quot;1&quot; fold=&quot;1&quot; page=&quot;0&quot; pageScale=&quot;1&quot; pageWidth=&quot;827&quot; pageHeight=&quot;1169&quot; math=&quot;0&quot; shadow=&quot;0&quot;&gt;&#10;      &lt;root&gt;&#10;        &lt;mxCell id=&quot;0&quot; /&gt;&#10;        &lt;mxCell id=&quot;1&quot; parent=&quot;0&quot; /&gt;&#10;        &lt;mxCell id=&quot;PIV7fX7Q7qkFLMhP4NvS-5&quot; value=&quot;&quot; style=&quot;verticalLabelPosition=bottom;verticalAlign=top;html=1;shape=mxgraph.basic.patternFillRect;fillStyle=diagGrid;step=5;fillStrokeWidth=0.2;fillStrokeColor=#dddddd;&quot; vertex=&quot;1&quot; parent=&quot;1&quot;&gt;&#10;          &lt;mxGeometry y=&quot;130&quot; width=&quot;500&quot; height=&quot;315&quot; as=&quot;geometry&quot; /&gt;&#10;        &lt;/mxCell&gt;&#10;        &lt;mxCell id=&quot;PIV7fX7Q7qkFLMhP4NvS-24&quot; value=&quot;&quot; style=&quot;rounded=0;whiteSpace=wrap;html=1;&quot; vertex=&quot;1&quot; parent=&quot;1&quot;&gt;&#10;          &lt;mxGeometry x=&quot;50&quot; y=&quot;270&quot; width=&quot;175&quot; height=&quot;150&quot; as=&quot;geometry&quot; /&gt;&#10;        &lt;/mxCell&gt;&#10;        &lt;mxCell id=&quot;PIV7fX7Q7qkFLMhP4NvS-26&quot; value=&quot;&quot; style=&quot;rounded=0;whiteSpace=wrap;html=1;&quot; vertex=&quot;1&quot; parent=&quot;1&quot;&gt;&#10;          &lt;mxGeometry x=&quot;275&quot; y=&quot;270&quot; width=&quot;175&quot; height=&quot;150&quot; as=&quot;geometry&quot; /&gt;&#10;        &lt;/mxCell&gt;&#10;        &lt;mxCell id=&quot;PIV7fX7Q7qkFLMhP4NvS-27&quot; value=&quot;&quot; style=&quot;rounded=0;whiteSpace=wrap;html=1;&quot; vertex=&quot;1&quot; parent=&quot;1&quot;&gt;&#10;          &lt;mxGeometry x=&quot;150&quot; y=&quot;180&quot; width=&quot;200&quot; height=&quot;25&quot; as=&quot;geometry&quot; /&gt;&#10;        &lt;/mxCell&gt;&#10;        &lt;mxCell id=&quot;PIV7fX7Q7qkFLMhP4NvS-29&quot; value=&quot;&quot; style=&quot;rounded=0;whiteSpace=wrap;html=1;&quot; vertex=&quot;1&quot; parent=&quot;1&quot;&gt;&#10;          &lt;mxGeometry x=&quot;100&quot; y=&quot;220&quot; width=&quot;300&quot; height=&quot;25&quot; as=&quot;geometry&quot; /&gt;&#10;        &lt;/mxCell&gt;&#10;        &lt;mxCell id=&quot;PIV7fX7Q7qkFLMhP4NvS-32&quot; value=&quot;&quot; style=&quot;verticalLabelPosition=bottom;verticalAlign=top;html=1;shape=mxgraph.basic.patternFillRect;fillStyle=diagGrid;step=5;fillStrokeWidth=0.2;fillStrokeColor=#dddddd;&quot; vertex=&quot;1&quot; parent=&quot;1&quot;&gt;&#10;          &lt;mxGeometry x=&quot;50&quot; y=&quot;270&quot; width=&quot;175&quot; height=&quot;100&quot; as=&quot;geometry&quot; /&gt;&#10;        &lt;/mxCell&gt;&#10;        &lt;mxCell id=&quot;PIV7fX7Q7qkFLMhP4NvS-33&quot; value=&quot;&quot; style=&quot;verticalLabelPosition=bottom;verticalAlign=top;html=1;shape=mxgraph.basic.patternFillRect;fillStyle=diagGrid;step=5;fillStrokeWidth=0.2;fillStrokeColor=#dddddd;&quot; vertex=&quot;1&quot; parent=&quot;1&quot;&gt;&#10;          &lt;mxGeometry x=&quot;275&quot; y=&quot;270&quot; width=&quot;175&quot; height=&quot;100&quot; as=&quot;geometry&quot; /&gt;&#10;        &lt;/mxCell&gt;&#10;        &lt;mxCell id=&quot;PIV7fX7Q7qkFLMhP4NvS-2&quot; value=&quot;&quot; style=&quot;ellipse;whiteSpace=wrap;html=1;&quot; vertex=&quot;1&quot; parent=&quot;1&quot;&gt;&#10;          &lt;mxGeometry x=&quot;15&quot; y=&quot;145&quot; width=&quot;100&quot; height=&quot;50&quot; as=&quot;geometry&quot; /&gt;&#10;        &lt;/mxCell&gt;&#10;        &lt;mxCell id=&quot;PIV7fX7Q7qkFLMhP4NvS-42&quot; value=&quot;&quot; style=&quot;rounded=0;whiteSpace=wrap;html=1;&quot; vertex=&quot;1&quot; parent=&quot;1&quot;&gt;&#10;          &lt;mxGeometry y=&quot;115&quot; width=&quot;500&quot; height=&quot;15&quot; as=&quot;geometry&quot; /&gt;&#10;        &lt;/mxCell&gt;&#10;        &lt;mxCell id=&quot;PIV7fX7Q7qkFLMhP4NvS-44&quot; value=&quot;&quot; style=&quot;rounded=1;whiteSpace=wrap;html=1;&quot; vertex=&quot;1&quot; parent=&quot;1&quot;&gt;&#10;          &lt;mxGeometry x=&quot;385&quot; y=&quot;145&quot; width=&quot;100&quot; height=&quot;25&quot; as=&quot;geometry&quot; /&gt;&#10;        &lt;/mxCell&gt;&#10;        &lt;mxCell id=&quot;PIV7fX7Q7qkFLMhP4NvS-47&quot; value=&quot;&quot; style=&quot;verticalLabelPosition=bottom;verticalAlign=top;html=1;shape=mxgraph.basic.rect;fillColor2=none;strokeWidth=1;size=20;indent=5;&quot; vertex=&quot;1&quot; parent=&quot;1&quot;&gt;&#10;          &lt;mxGeometry y=&quot;445&quot; width=&quot;500&quot; height=&quot;195&quot; as=&quot;geometry&quot; /&gt;&#10;        &lt;/mxCell&gt;&#10;        &lt;mxCell id=&quot;PIV7fX7Q7qkFLMhP4NvS-48&quot; value=&quot;&quot; style=&quot;verticalLabelPosition=bottom;verticalAlign=top;html=1;shape=mxgraph.basic.rect;fillColor2=none;strokeWidth=1;size=20;indent=5;&quot; vertex=&quot;1&quot; parent=&quot;1&quot;&gt;&#10;          &lt;mxGeometry x=&quot;25&quot; y=&quot;510&quot; width=&quot;212.5&quot; height=&quot;25&quot; as=&quot;geometry&quot; /&gt;&#10;        &lt;/mxCell&gt;&#10;        &lt;mxCell id=&quot;PIV7fX7Q7qkFLMhP4NvS-69&quot; value=&quot;&quot; style=&quot;verticalLabelPosition=bottom;verticalAlign=top;html=1;shape=mxgraph.basic.rect;fillColor2=none;strokeWidth=1;size=20;indent=5;&quot; vertex=&quot;1&quot; parent=&quot;1&quot;&gt;&#10;          &lt;mxGeometry x=&quot;262.5&quot; y=&quot;510&quot; width=&quot;212.5&quot; height=&quot;25&quot; as=&quot;geometry&quot; /&gt;&#10;        &lt;/mxCell&gt;&#10;        &lt;mxCell id=&quot;PIV7fX7Q7qkFLMhP4NvS-79&quot; value=&quot;&quot; style=&quot;verticalLabelPosition=bottom;verticalAlign=top;html=1;shape=mxgraph.basic.rect;fillColor2=none;strokeWidth=1;size=20;indent=5;&quot; vertex=&quot;1&quot; parent=&quot;1&quot;&gt;&#10;          &lt;mxGeometry x=&quot;25&quot; y=&quot;550&quot; width=&quot;212.5&quot; height=&quot;25&quot; as=&quot;geometry&quot; /&gt;&#10;        &lt;/mxCell&gt;&#10;        &lt;mxCell id=&quot;PIV7fX7Q7qkFLMhP4NvS-80&quot; value=&quot;&quot; style=&quot;verticalLabelPosition=bottom;verticalAlign=top;html=1;shape=mxgraph.basic.rect;fillColor2=none;strokeWidth=1;size=20;indent=5;&quot; vertex=&quot;1&quot; parent=&quot;1&quot;&gt;&#10;          &lt;mxGeometry x=&quot;262.5&quot; y=&quot;550&quot; width=&quot;212.5&quot; height=&quot;25&quot; as=&quot;geometry&quot; /&gt;&#10;        &lt;/mxCell&gt;&#10;        &lt;mxCell id=&quot;PIV7fX7Q7qkFLMhP4NvS-83&quot; value=&quot;&quot; style=&quot;verticalLabelPosition=bottom;verticalAlign=top;html=1;shape=mxgraph.basic.rect;fillColor2=none;strokeWidth=1;size=20;indent=5;&quot; vertex=&quot;1&quot; parent=&quot;1&quot;&gt;&#10;          &lt;mxGeometry x=&quot;25&quot; y=&quot;470&quot; width=&quot;150&quot; height=&quot;25&quot; as=&quot;geometry&quot; /&gt;&#10;        &lt;/mxCell&gt;&#10;        &lt;mxCell id=&quot;PIV7fX7Q7qkFLMhP4NvS-85&quot; value=&quot;&quot; style=&quot;rounded=1;whiteSpace=wrap;html=1;&quot; vertex=&quot;1&quot; parent=&quot;1&quot;&gt;&#10;          &lt;mxGeometry x=&quot;25&quot; y=&quot;590&quot; width=&quot;75&quot; height=&quot;25&quot; as=&quot;geometry&quot; /&gt;&#10;        &lt;/mxCell&gt;&#10;        &lt;mxCell id=&quot;PIV7fX7Q7qkFLMhP4NvS-91&quot; value=&quot;&quot; style=&quot;rounded=0;whiteSpace=wrap;html=1;&quot; vertex=&quot;1&quot; parent=&quot;1&quot;&gt;&#10;          &lt;mxGeometry y=&quot;640&quot; width=&quot;500&quot; height=&quot;50&quot; as=&quot;geometry&quot; /&gt;&#10;        &lt;/mxCell&gt;&#10;      &lt;/root&gt;&#10;    &lt;/mxGraphModel&gt;&#10;  &lt;/diagram&gt;&#10;&lt;/mxfile&gt;&#10;"><defs/><g><g data-cell-id="0"><g data-cell-id="1"><g data-cell-id="PIV7fX7Q7qkFLMhP4NvS-5"><g><rect x="0" y="15" width="500" height="315" fill="#ffffff" stroke="none" pointer-events="all" style="fill: light-dark(#ffffff, var(--ge-dark-color, #121212));"/><path d="M 0 15 L 0 15 M 0 22.05 L 7.05 15 M 0 29.1 L 14.1 15 M 0 36.15 L 21.15 15 M 0 43.2 L 28.2 15 M 0 50.25 L 35.25 15 M 0 57.3 L 42.3 15 M 0 64.35 L 49.35 15 M 0 71.4 L 56.4 15 M 0 78.45 L 63.45 15 M 0 85.5 L 70.5 15 M 0 92.55 L 77.55 15 M 0 99.6 L 84.6 15 M 0 106.65 L 91.65 15 M 0 113.7 L 98.7 15 M 0 120.75 L 105.75 15 M 0 127.8 L 112.8 15 M 0 134.85 L 119.85 15 M 0 141.9 L 126.9 15 M 0 148.95 L 133.95 15 M 0 156 L 141 15 M 0 163.05 L 148.05 15 M 0 170.1 L 155.1 15 M 0 177.15 L 162.15 15 M 0 184.2 L 169.2 15 M 0 191.25 L 176.25 15 M 0 198.3 L 183.3 15 M 0 205.35 L 190.35 15 M 0 212.4 L 197.4 15 M 0 219.45 L 204.45 15 M 0 226.5 L 211.5 15 M 0 233.55 L 218.55 15 M 0 240.6 L 225.6 15 M 0 247.65 L 232.65 15 M 0 254.7 L 239.7 15 M 0 261.75 L 246.75 15 M 0 268.8 L 253.8 15 M 0 275.85 L 260.85 15 M 0 282.9 L 267.9 15 M 0 289.95 L 274.95 15 M 0 297 L 282 15 M 0 304.05 L 289.05 15 M 0 311.1 L 296.1 15 M 0 318.15 L 303.15 15 M 0 325.2 L 310.2 15 M 2.25 330 L 317.25 15 M 9.3 330 L 324.3 15 M 16.35 330 L 331.35 15 M 23.4 330 L 338.4 15 M 30.45 330 L 345.45 15 M 37.5 330 L 352.5 15 M 44.55 330 L 359.55 15 M 51.6 330 L 366.6 15 M 58.65 330 L 373.65 15 M 65.7 330 L 380.7 15 M 72.75 330 L 387.75 15 M 79.8 330 L 394.8 15 M 86.85 330 L 401.85 15 M 93.9 330 L 408.9 15 M 100.95 330 L 415.95 15 M 108 330 L 423 15 M 115.05 330 L 430.05 15 M 122.1 330 L 437.1 15 M 129.15 330 L 444.15 15 M 136.2 330 L 451.2 15 M 143.25 330 L 458.25 15 M 150.3 330 L 465.3 15 M 157.35 330 L 472.35 15 M 164.4 330 L 479.4 15 M 171.45 330 L 486.45 15 M 178.5 330 L 493.5 15 M 185.55 330 L 500 15.55 M 192.6 330 L 500 22.6 M 199.65 330 L 500 29.65 M 206.7 330 L 500 36.7 M 213.75 330 L 500 43.75 M 220.8 330 L 500 50.8 M 227.85 330 L 500 57.85 M 234.9 330 L 500 64.9 M 241.95 330 L 500 71.95 M 249 330 L 500 79 M 256.05 330 L 500 86.05 M 263.1 330 L 500 93.1 M 270.15 330 L 500 100.15 M 277.2 330 L 500 107.2 M 284.25 330 L 500 114.25 M 291.3 330 L 500 121.3 M 298.35 330 L 500 128.35 M 305.4 330 L 500 135.4 M 312.45 330 L 500 142.45 M 319.5 330 L 500 149.5 M 326.55 330 L 500 156.55 M 333.6 330 L 500 163.6 M 340.65 330 L 500 170.65 M 347.7 330 L 500 177.7 M 354.75 330 L 500 184.75 M 361.8 330 L 500 191.8 M 368.85 330 L 500 198.85 M 375.9 330 L 500 205.9 M 382.95 330 L 500 212.95 M 390 330 L 500 220 M 397.05 330 L 500 227.05 M 404.1 330 L 500 234.1 M 411.15 330 L 500 241.15 M 418.2 330 L 500 248.2 M 425.25 330 L 500 255.25 M 432.3 330 L 500 262.3 M 439.35 330 L 500 269.35 M 446.4 330 L 500 276.4 M 453.45 330 L 500 283.45 M 460.5 330 L 500 290.5 M 467.55 330 L 500 297.55 M 474.6 330 L 500 304.6 M 481.65 330 L 500 311.65 M 488.7 330 L 500 318.7 M 495.75 330 L 500 325.75" fill="none" stroke="#dddddd" stroke-width="0.2" stroke-miterlimit="10" pointer-events="all" style="stroke: light-dark(rgb(221, 221, 221), rgb(47, 47, 47));"/><path d="M 500 15 L 500 15 M 500 22.05 L 492.95 15 M 500 29.1 L 485.9 15 M 500 36.15 L 478.85 15 M 500 43.2 L 471.8 15 M 500 50.25 L 464.75 15 M 500 57.3 L 457.7 15 M 500 64.35 L 450.65 15 M 500 71.4 L 443.6 15 M 500 78.45 L 436.55 15 M 500 85.5 L 429.5 15 M 500 92.55 L 422.45 15 M 500 99.6 L 415.4 15 M 500 106.65 L 408.35 15 M 500 113.7 L 401.3 15 M 500 120.75 L 394.25 15 M 500 127.8 L 387.2 15 M 500 134.85 L 380.15 15 M 500 141.9 L 373.1 15 M 500 148.95 L 366.05 15 M 500 156 L 359 15 M 500 163.05 L 351.95 15 M 500 170.1 L 344.9 15 M 500 177.15 L 337.85 15 M 500 184.2 L 330.8 15 M 500 191.25 L 323.75 15 M 500 198.3 L 316.7 15 M 500 205.35 L 309.65 15 M 500 212.4 L 302.6 15 M 500 219.45 L 295.55 15 M 500 226.5 L 288.5 15 M 500 233.55 L 281.45 15 M 500 240.6 L 274.4 15 M 500 247.65 L 267.35 15 M 500 254.7 L 260.3 15 M 500 261.75 L 253.25 15 M 500 268.8 L 246.2 15 M 500 275.85 L 239.15 15 M 500 282.9 L 232.1 15 M 500 289.95 L 225.05 15 M 500 297 L 218 15 M 500 304.05 L 210.95 15 M 500 311.1 L 203.9 15 M 500 318.15 L 196.85 15 M 500 325.2 L 189.8 15 M 497.75 330 L 182.75 15 M 490.7 330 L 175.7 15 M 483.65 330 L 168.65 15 M 476.6 330 L 161.6 15 M 469.55 330 L 154.55 15 M 462.5 330 L 147.5 15 M 455.45 330 L 140.45 15 M 448.4 330 L 133.4 15 M 441.35 330 L 126.35 15 M 434.3 330 L 119.3 15 M 427.25 330 L 112.25 15 M 420.2 330 L 105.2 15 M 413.15 330 L 98.15 15 M 406.1 330 L 91.1 15 M 399.05 330 L 84.05 15 M 392 330 L 77 15 M 384.95 330 L 69.95 15 M 377.9 330 L 62.9 15 M 370.85 330 L 55.85 15 M 363.8 330 L 48.8 15 M 356.75 330 L 41.75 15 M 349.7 330 L 34.7 15 M 342.65 330 L 27.65 15 M 335.6 330 L 20.6 15 M 328.55 330 L 13.55 15 M 321.5 330 L 6.5 15 M 314.45 330 L 0 15.55 M 307.4 330 L 0 22.6 M 300.35 330 L 0 29.65 M 293.3 330 L 0 36.7 M 286.25 330 L 0 43.75 M 279.2 330 L 0 50.8 M 272.15 330 L 0 57.85 M 265.1 330 L 0 64.9 M 258.05 330 L 0 71.95 M 251 330 L 0 79 M 243.95 330 L 0 86.05 M 236.9 330 L 0 93.1 M 229.85 330 L 0 100.15 M 222.8 330 L 0 107.2 M 215.75 330 L 0 114.25 M 208.7 330 L 0 121.3 M 201.65 330 L 0 128.35 M 194.6 330 L 0 135.4 M 187.55 330 L 0 142.45 M 180.5 330 L 0 149.5 M 173.45 330 L 0 156.55 M 166.4 330 L 0 163.6 M 159.35 330 L 0 170.65 M 152.3 330 L 0 177.7 M 145.25 330 L 0 184.75 M 138.2 330 L 0 191.8 M 131.15 330 L 0 198.85 M 124.1 330 L 0 205.9 M 117.05 330 L 0 212.95 M 110 330 L 0 220 M 102.95 330 L 0 227.05 M 95.9 330 L 0 234.1 M 88.85 330 L 0 241.15 M 81.8 330 L 0 248.2 M 74.75 330 L 0 255.25 M 67.7 330 L 0 262.3 M 60.65 330 L 0 269.35 M 53.6 330 L 0 276.4 M 46.55 330 L 0 283.45 M 39.5 330 L 0 290.5 M 32.45 330 L 0 297.55 M 25.4 330 L 0 304.6 M 18.35 330 L 0 311.65 M 11.3 330 L 0 318.7 M 4.25 330 L 0 325.75" fill="none" stroke="#dddddd" stroke-width="0.2" stroke-miterlimit="10" pointer-events="all" style="stroke: light-dark(rgb(221, 221, 221), rgb(47, 47, 47));"/><path d="M 0 15 L 500 15 L 500 330 L 0 330 L 0 15" fill="none" stroke="#000000" stroke-miterlimit="10" pointer-events="all" style="stroke: light-dark(rgb(0, 0, 0), rgb(255, 255, 255));"/></g></g><g data-cell-id="PIV7fX7Q7qkFLMhP4NvS-24"><g><rect x="50" y="155" width="175" height="150" fill="#ffffff" stroke="#000000" pointer-events="all" style="fill: light-dark(#ffffff, var(--ge-dark-color, #121212)); stroke: light-dark(rgb(0, 0, 0), rgb(255, 255, 255));"/></g></g><g data-cell-id="PIV7fX7Q7qkFLMhP4NvS-26"><g><rect x="275" y="155" width="175" height="150" fill="#ffffff" stroke="#000000" pointer-events="all" style="fill: light-dark(#ffffff, var(--ge-dark-color, #121212)); stroke: light-dark(rgb(0, 0, 0), rgb(255, 255, 255));"/></g></g><g data-cell-id="PIV7fX7Q7qkFLMhP4NvS-27"><g><rect x="150" y="65" width="200" height="25" fill="#ffffff" stroke="#000000" pointer-events="all" style="fill: light-dark(#ffffff, var(--ge-dark-color, #121212)); stroke: light-dark(rgb(0, 0, 0), rgb(255, 255, 255));"/></g></g><g data-cell-id="PIV7fX7Q7qkFLMhP4NvS-29"><g><rect x="100" y="105" width="300" height="25" fill="#ffffff" stroke="#000000" pointer-events="all" style="fill: light-dark(#ffffff, var(--ge-dark-color, #121212)); stroke: light-dark(rgb(0, 0, 0), rgb(255, 255, 255));"/></g></g><g data-cell-id="PIV7fX7Q7qkFLMhP4NvS-32"><g><rect x="50" y="155" width="175" height="100" fill="#ffffff" stroke="none" pointer-events="all" style="fill: light-dark(#ffffff, var(--ge-dark-color, #121212));"/><path d="M 50 155 L 50 155 M 50 162.05 L 57.05 155 M 50 169.1 L 64.1 155 M 50 176.15 L 71.15 155 M 50 183.2 L 78.2 155 M 50 190.25 L 85.25 155 M 50 197.3 L 92.3 155 M 50 204.35 L 99.35 155 M 50 211.4 L 106.4 155 M 50 218.45 L 113.45 155 M 50 225.5 L 120.5 155 M 50 232.55 L 127.55 155 M 50 239.6 L 134.6 155 M 50 246.65 L 141.65 155 M 50 253.7 L 148.7 155 M 55.75 255 L 155.75 155 M 62.8 255 L 162.8 155 M 69.85 255 L 169.85 155 M 76.9 255 L 176.9 155 M 83.95 255 L 183.95 155 M 91 255 L 191 155 M 98.05 255 L 198.05 155 M 105.1 255 L 205.1 155 M 112.15 255 L 212.15 155 M 119.2 255 L 219.2 155 M 126.25 255 L 225 156.25 M 133.3 255 L 225 163.3 M 140.35 255 L 225 170.35 M 147.4 255 L 225 177.4 M 154.45 255 L 225 184.45 M 161.5 255 L 225 191.5 M 168.55 255 L 225 198.55 M 175.6 255 L 225 205.6 M 182.65 255 L 225 212.65 M 189.7 255 L 225 219.7 M 196.75 255 L 225 226.75 M 203.8 255 L 225 233.8 M 210.85 255 L 225 240.85 M 217.9 255 L 225 247.9 M 224.95 255 L 225 254.95" fill="none" stroke="#dddddd" stroke-width="0.2" stroke-miterlimit="10" pointer-events="all" style="stroke: light-dark(rgb(221, 221, 221), rgb(47, 47, 47));"/><path d="M 225 155 L 225 155 M 225 162.05 L 217.95 155 M 225 169.1 L 210.9 155 M 225 176.15 L 203.85 155 M 225 183.2 L 196.8 155 M 225 190.25 L 189.75 155 M 225 197.3 L 182.7 155 M 225 204.35 L 175.65 155 M 225 211.4 L 168.6 155 M 225 218.45 L 161.55 155 M 225 225.5 L 154.5 155 M 225 232.55 L 147.45 155 M 225 239.6 L 140.4 155 M 225 246.65 L 133.35 155 M 225 253.7 L 126.3 155 M 219.25 255 L 119.25 155 M 212.2 255 L 112.2 155 M 205.15 255 L 105.15 155 M 198.1 255 L 98.1 155 M 191.05 255 L 91.05 155 M 184 255 L 84 155 M 176.95 255 L 76.95 155 M 169.9 255 L 69.9 155 M 162.85 255 L 62.85 155 M 155.8 255 L 55.8 155 M 148.75 255 L 50 156.25 M 141.7 255 L 50 163.3 M 134.65 255 L 50 170.35 M 127.6 255 L 50 177.4 M 120.55 255 L 50 184.45 M 113.5 255 L 50 191.5 M 106.45 255 L 50 198.55 M 99.4 255 L 50 205.6 M 92.35 255 L 50 212.65 M 85.3 255 L 50 219.7 M 78.25 255 L 50 226.75 M 71.2 255 L 50 233.8 M 64.15 255 L 50 240.85 M 57.1 255 L 50 247.9 M 50.05 255 L 50 254.95" fill="none" stroke="#dddddd" stroke-width="0.2" stroke-miterlimit="10" pointer-events="all" style="stroke: light-dark(rgb(221, 221, 221), rgb(47, 47, 47));"/><path d="M 50 155 L 225 155 L 225 255 L 50 255 L 50 155" fill="none" stroke="#000000" stroke-miterlimit="10" pointer-events="all" style="stroke: light-dark(rgb(0, 0, 0), rgb(255, 255, 255));"/></g></g><g data-cell-id="PIV7fX7Q7qkFLMhP4NvS-33"><g><rect x="275" y="155" width="175" height="100" fill="#ffffff" stroke="none" pointer-events="all" style="fill: light-dark(#ffffff, var(--ge-dark-color, #121212));"/><path d="M 275 155 L 275 155 M 275 162.05 L 282.05 155 M 275 169.1 L 289.1 155 M 275 176.15 L 296.15 155 M 275 183.2 L 303.2 155 M 275 190.25 L 310.25 155 M 275 197.3 L 317.3 155 M 275 204.35 L 324.35 155 M 275 211.4 L 331.4 155 M 275 218.45 L 338.45 155 M 275 225.5 L 345.5 155 M 275 232.55 L 352.55 155 M 275 239.6 L 359.6 155 M 275 246.65 L 366.65 155 M 275 253.7 L 373.7 155 M 280.75 255 L 380.75 155 M 287.8 255 L 387.8 155 M 294.85 255 L 394.85 155 M 301.9 255 L 401.9 155 M 308.95 255 L 408.95 155 M 316 255 L 416 155 M 323.05 255 L 423.05 155 M 330.1 255 L 430.1 155 M 337.15 255 L 437.15 155 M 344.2 255 L 444.2 155 M 351.25 255 L 450 156.25 M 358.3 255 L 450 163.3 M 365.35 255 L 450 170.35 M 372.4 255 L 450 177.4 M 379.45 255 L 450 184.45 M 386.5 255 L 450 191.5 M 393.55 255 L 450 198.55 M 400.6 255 L 450 205.6 M 407.65 255 L 450 212.65 M 414.7 255 L 450 219.7 M 421.75 255 L 450 226.75 M 428.8 255 L 450 233.8 M 435.85 255 L 450 240.85 M 442.9 255 L 450 247.9 M 449.95 255 L 450 254.95" fill="none" stroke="#dddddd" stroke-width="0.2" stroke-miterlimit="10" pointer-events="all" style="stroke: light-dark(rgb(221, 221, 221), rgb(47, 47, 47));"/><path d="M 450 155 L 450 155 M 450 162.05 L 442.95 155 M 450 169.1 L 435.9 155 M 450 176.15 L 428.85 155 M 450 183.2 L 421.8 155 M 450 190.25 L 414.75 155 M 450 197.3 L 407.7 155 M 450 204.35 L 400.65 155 M 450 211.4 L 393.6 155 M 450 218.45 L 386.55 155 M 450 225.5 L 379.5 155 M 450 232.55 L 372.45 155 M 450 239.6 L 365.4 155 M 450 246.65 L 358.35 155 M 450 253.7 L 351.3 155 M 444.25 255 L 344.25 155 M 437.2 255 L 337.2 155 M 430.15 255 L 330.15 155 M 423.1 255 L 323.1 155 M 416.05 255 L 316.05 155 M 409 255 L 309 155 M 401.95 255 L 301.95 155 M 394.9 255 L 294.9 155 M 387.85 255 L 287.85 155 M 380.8 255 L 280.8 155 M 373.75 255 L 275 156.25 M 366.7 255 L 275 163.3 M 359.65 255 L 275 170.35 M 352.6 255 L 275 177.4 M 345.55 255 L 275 184.45 M 338.5 255 L 275 191.5 M 331.45 255 L 275 198.55 M 324.4 255 L 275 205.6 M 317.35 255 L 275 212.65 M 310.3 255 L 275 219.7 M 303.25 255 L 275 226.75 M 296.2 255 L 275 233.8 M 289.15 255 L 275 240.85 M 282.1 255 L 275 247.9 M 275.05 255 L 275 254.95" fill="none" stroke="#dddddd" stroke-width="0.2" stroke-miterlimit="10" pointer-events="all" style="stroke: light-dark(rgb(221, 221, 221), rgb(47, 47, 47));"/><path d="M 275 155 L 450 155 L 450 255 L 275 255 L 275 155" fill="none" stroke="#000000" stroke-miterlimit="10" pointer-events="all" style="stroke: light-dark(rgb(0, 0, 0), rgb(255, 255, 255));"/></g></g><g data-cell-id="PIV7fX7Q7qkFLMhP4NvS-2"><g><ellipse cx="65" cy="55" rx="50" ry="25" fill="#ffffff" stroke="#000000" pointer-events="all" style="fill: light-dark(#ffffff, var(--ge-dark-color, #121212)); stroke: light-dark(rgb(0, 0, 0), rgb(255, 255, 255));"/></g></g><g data-cell-id="PIV7fX7Q7qkFLMhP4NvS-42"><g><rect x="0" y="0" width="500" height="15" fill="#ffffff" stroke="#000000" pointer-events="all" style="fill: light-dark(#ffffff, var(--ge-dark-color, #121212)); stroke: light-dark(rgb(0, 0, 0), rgb(255, 255, 255));"/></g></g><g data-cell-id="PIV7fX7Q7qkFLMhP4NvS-44"><g><rect x="385" y="30" width="100" height="25" rx="3.75" ry="3.75" fill="#ffffff" stroke="#000000" pointer-events="all" style="fill: light-dark(#ffffff, var(--ge-dark-color, #121212)); stroke: light-dark(rgb(0, 0, 0), rgb(255, 255, 255));"/></g></g><g data-cell-id="PIV7fX7Q7qkFLMhP4NvS-47"><g><path d="M 0 330 L 500 330 L 500 525 L 0 525 L 0 330 Z" fill="#ffffff" stroke="none" pointer-events="all" style="fill: light-dark(#ffffff, var(--ge-dark-color, #121212));"/><path d="M 5 335 L 5 520 L 5 520 L 495 520 L 495 335 L 5 335" fill="transparent" stroke="none" pointer-events="all" style="fill: transparent;"/><path d="M 0 330 L 500 330 L 500 525 L 0 525 L 0 330 Z" fill="none" stroke="#000000" stroke-miterlimit="10" pointer-events="all" style="stroke: light-dark(rgb(0, 0, 0), rgb(255, 255, 255));"/></g></g><g data-cell-id="PIV7fX7Q7qkFLMhP4NvS-48"><g><path d="M 25 395 L 237.5 395 L 237.5 420 L 25 420 L 25 395 Z" fill="#ffffff" stroke="none" pointer-events="all" style="fill: light-dark(#ffffff, var(--ge-dark-color, #121212));"/><path d="M 25 395 L 25 420 L 25 420 L 237.5 420 L 237.5 395 L 25 395" fill="transparent" stroke="none" pointer-events="all" style="fill: transparent;"/><path d="M 25 395 L 237.5 395 L 237.5 420 L 25 420 L 25 395 Z" fill="none" stroke="#000000" stroke-miterlimit="10" pointer-events="all" style="stroke: light-dark(rgb(0, 0, 0), rgb(255, 255, 255));"/></g></g><g data-cell-id="PIV7fX7Q7qkFLMhP4NvS-69"><g><path d="M 262.5 395 L 475 395 L 475 420 L 262.5 420 L 262.5 395 Z" fill="#ffffff" stroke="none" pointer-events="all" style="fill: light-dark(#ffffff, var(--ge-dark-color, #121212));"/><path d="M 262.5 395 L 262.5 420 L 262.5 420 L 475 420 L 475 395 L 262.5 395" fill="transparent" stroke="none" pointer-events="all" style="fill: transparent;"/><path d="M 262.5 395 L 475 395 L 475 420 L 262.5 420 L 262.5 395 Z" fill="none" stroke="#000000" stroke-miterlimit="10" pointer-events="all" style="stroke: light-dark(rgb(0, 0, 0), rgb(255, 255, 255));"/></g></g><g data-cell-id="PIV7fX7Q7qkFLMhP4NvS-79"><g><path d="M 25 435 L 237.5 435 L 237.5 460 L 25 460 L 25 435 Z" fill="#ffffff" stroke="none" pointer-events="all" style="fill: light-dark(#ffffff, var(--ge-dark-color, #121212));"/><path d="M 25 435 L 25 460 L 25 460 L 237.5 460 L 237.5 435 L 25 435" fill="transparent" stroke="none" pointer-events="all" style="fill: transparent;"/><path d="M 25 435 L 237.5 435 L 237.5 460 L 25 460 L 25 435 Z" fill="none" stroke="#000000" stroke-miterlimit="10" pointer-events="all" style="stroke: light-dark(rgb(0, 0, 0), rgb(255, 255, 255));"/></g></g><g data-cell-id="PIV7fX7Q7qkFLMhP4NvS-80"><g><path d="M 262.5 435 L 475 435 L 475 460 L 262.5 460 L 262.5 435 Z" fill="#ffffff" stroke="none" pointer-events="all" style="fill: light-dark(#ffffff, var(--ge-dark-color, #121212));"/><path d="M 262.5 435 L 262.5 460 L 262.5 460 L 475 460 L 475 435 L 262.5 435" fill="transparent" stroke="none" pointer-events="all" style="fill: transparent;"/><path d="M 262.5 435 L 475 435 L 475 460 L 262.5 460 L 262.5 435 Z" fill="none" stroke="#000000" stroke-miterlimit="10" pointer-events="all" style="stroke: light-dark(rgb(0, 0, 0), rgb(255, 255, 255));"/></g></g><g data-cell-id="PIV7fX7Q7qkFLMhP4NvS-83"><g><path d="M 25 355 L 175 355 L 175 380 L 25 380 L 25 355 Z" fill="#ffffff" stroke="none" pointer-events="all" style="fill: light-dark(#ffffff, var(--ge-dark-color, #121212));"/><path d="M 25 355 L 25 380 L 25 380 L 175 380 L 175 355 L 25 355" fill="transparent" stroke="none" pointer-events="all" style="fill: transparent;"/><path d="M 25 355 L 175 355 L 175 380 L 25 380 L 25 355 Z" fill="none" stroke="#000000" stroke-miterlimit="10" pointer-events="all" style="stroke: light-dark(rgb(0, 0, 0), rgb(255, 255, 255));"/></g></g><g data-cell-id="PIV7fX7Q7qkFLMhP4NvS-85"><g><rect x="25" y="475" width="75" height="25" rx="3.75" ry="3.75" fill="#ffffff" stroke="#000000" pointer-events="all" style="fill: light-dark(#ffffff, var(--ge-dark-color, #121212)); stroke: light-dark(rgb(0, 0, 0), rgb(255, 255, 255));"/></g></g><g data-cell-id="PIV7fX7Q7qkFLMhP4NvS-91"><g><rect x="0" y="525" width="500" height="50" fill="#ffffff" stroke="#000000" pointer-events="all" style="fill: light-dark(#ffffff, var(--ge-dark-color, #121212)); stroke: light-dark(rgb(0, 0, 0), rgb(255, 255, 255));"/></g></g></g></g></g></svg>