<?xml version="1.0" encoding="UTF-8"?>
<!-- Do not edit this file with editors other than draw.io -->
<!DOCTYPE svg PUBLIC "-//W3C//DTD SVG 1.1//EN" "http://www.w3.org/Graphics/SVG/1.1/DTD/svg11.dtd">
<svg xmlns="http://www.w3.org/2000/svg" style="background: transparent; background-color: transparent; color-scheme: light dark;" xmlns:xlink="http://www.w3.org/1999/xlink" version="1.1" width="301px" height="919px" viewBox="-0.5 -0.5 301 919" content="&lt;mxfile host=&quot;app.diagrams.net&quot; agent=&quot;Mozilla/5.0 (Windows NT 10.0; Win64; x64) AppleWebKit/537.36 (KHTML, like Gecko) Chrome/132.0.0.0 Safari/537.36&quot; version=&quot;26.0.11&quot;&gt;&#10;  &lt;diagram name=&quot;Page-1&quot; id=&quot;egEt8ijwYmFO9_lSSHOj&quot;&gt;&#10;    &lt;mxGraphModel dx=&quot;1045&quot; dy=&quot;926&quot; grid=&quot;1&quot; gridSize=&quot;10&quot; guides=&quot;1&quot; tooltips=&quot;1&quot; connect=&quot;1&quot; arrows=&quot;1&quot; fold=&quot;1&quot; page=&quot;0&quot; pageScale=&quot;1&quot; pageWidth=&quot;827&quot; pageHeight=&quot;1169&quot; math=&quot;0&quot; shadow=&quot;0&quot;&gt;&#10;      &lt;root&gt;&#10;        &lt;mxCell id=&quot;0&quot; /&gt;&#10;        &lt;mxCell id=&quot;1&quot; parent=&quot;0&quot; /&gt;&#10;        &lt;mxCell id=&quot;PIV7fX7Q7qkFLMhP4NvS-5&quot; value=&quot;&quot; style=&quot;verticalLabelPosition=bottom;verticalAlign=top;html=1;shape=mxgraph.basic.patternFillRect;fillStyle=diagGrid;step=5;fillStrokeWidth=0.2;fillStrokeColor=#dddddd;&quot; vertex=&quot;1&quot; parent=&quot;1&quot;&gt;&#10;          &lt;mxGeometry y=&quot;130&quot; width=&quot;300&quot; height=&quot;530&quot; as=&quot;geometry&quot; /&gt;&#10;        &lt;/mxCell&gt;&#10;        &lt;mxCell id=&quot;PIV7fX7Q7qkFLMhP4NvS-27&quot; value=&quot;&quot; style=&quot;rounded=0;whiteSpace=wrap;html=1;&quot; vertex=&quot;1&quot; parent=&quot;1&quot;&gt;&#10;          &lt;mxGeometry x=&quot;75&quot; y=&quot;225&quot; width=&quot;150&quot; height=&quot;25&quot; as=&quot;geometry&quot; /&gt;&#10;        &lt;/mxCell&gt;&#10;        &lt;mxCell id=&quot;PIV7fX7Q7qkFLMhP4NvS-29&quot; value=&quot;&quot; style=&quot;rounded=0;whiteSpace=wrap;html=1;&quot; vertex=&quot;1&quot; parent=&quot;1&quot;&gt;&#10;          &lt;mxGeometry x=&quot;50&quot; y=&quot;265&quot; width=&quot;200&quot; height=&quot;25&quot; as=&quot;geometry&quot; /&gt;&#10;        &lt;/mxCell&gt;&#10;        &lt;mxCell id=&quot;PIV7fX7Q7qkFLMhP4NvS-2&quot; value=&quot;&quot; style=&quot;ellipse;whiteSpace=wrap;html=1;&quot; vertex=&quot;1&quot; parent=&quot;1&quot;&gt;&#10;          &lt;mxGeometry x=&quot;15&quot; y=&quot;145&quot; width=&quot;100&quot; height=&quot;50&quot; as=&quot;geometry&quot; /&gt;&#10;        &lt;/mxCell&gt;&#10;        &lt;mxCell id=&quot;PIV7fX7Q7qkFLMhP4NvS-42&quot; value=&quot;&quot; style=&quot;rounded=0;whiteSpace=wrap;html=1;&quot; vertex=&quot;1&quot; parent=&quot;1&quot;&gt;&#10;          &lt;mxGeometry y=&quot;115&quot; width=&quot;300&quot; height=&quot;15&quot; as=&quot;geometry&quot; /&gt;&#10;        &lt;/mxCell&gt;&#10;        &lt;mxCell id=&quot;PIV7fX7Q7qkFLMhP4NvS-44&quot; value=&quot;&quot; style=&quot;rounded=1;whiteSpace=wrap;html=1;&quot; vertex=&quot;1&quot; parent=&quot;1&quot;&gt;&#10;          &lt;mxGeometry x=&quot;185&quot; y=&quot;145&quot; width=&quot;100&quot; height=&quot;37.5&quot; as=&quot;geometry&quot; /&gt;&#10;        &lt;/mxCell&gt;&#10;        &lt;mxCell id=&quot;PIV7fX7Q7qkFLMhP4NvS-47&quot; value=&quot;&quot; style=&quot;verticalLabelPosition=bottom;verticalAlign=top;html=1;shape=mxgraph.basic.rect;fillColor2=none;strokeWidth=1;size=20;indent=5;&quot; vertex=&quot;1&quot; parent=&quot;1&quot;&gt;&#10;          &lt;mxGeometry y=&quot;675&quot; width=&quot;300&quot; height=&quot;307.5&quot; as=&quot;geometry&quot; /&gt;&#10;        &lt;/mxCell&gt;&#10;        &lt;mxCell id=&quot;PIV7fX7Q7qkFLMhP4NvS-48&quot; value=&quot;&quot; style=&quot;verticalLabelPosition=bottom;verticalAlign=top;html=1;shape=mxgraph.basic.rect;fillColor2=none;strokeWidth=1;size=20;indent=5;&quot; vertex=&quot;1&quot; parent=&quot;1&quot;&gt;&#10;          &lt;mxGeometry x=&quot;25&quot; y=&quot;750&quot; width=&quot;250&quot; height=&quot;25&quot; as=&quot;geometry&quot; /&gt;&#10;        &lt;/mxCell&gt;&#10;        &lt;mxCell id=&quot;PIV7fX7Q7qkFLMhP4NvS-79&quot; value=&quot;&quot; style=&quot;verticalLabelPosition=bottom;verticalAlign=top;html=1;shape=mxgraph.basic.rect;fillColor2=none;strokeWidth=1;size=20;indent=5;&quot; vertex=&quot;1&quot; parent=&quot;1&quot;&gt;&#10;          &lt;mxGeometry x=&quot;25&quot; y=&quot;790&quot; width=&quot;250&quot; height=&quot;25&quot; as=&quot;geometry&quot; /&gt;&#10;        &lt;/mxCell&gt;&#10;        &lt;mxCell id=&quot;PIV7fX7Q7qkFLMhP4NvS-83&quot; value=&quot;&quot; style=&quot;verticalLabelPosition=bottom;verticalAlign=top;html=1;shape=mxgraph.basic.rect;fillColor2=none;strokeWidth=1;size=20;indent=5;&quot; vertex=&quot;1&quot; parent=&quot;1&quot;&gt;&#10;          &lt;mxGeometry x=&quot;75&quot; y=&quot;705&quot; width=&quot;150&quot; height=&quot;25&quot; as=&quot;geometry&quot; /&gt;&#10;        &lt;/mxCell&gt;&#10;        &lt;mxCell id=&quot;PIV7fX7Q7qkFLMhP4NvS-85&quot; value=&quot;&quot; style=&quot;rounded=1;whiteSpace=wrap;html=1;&quot; vertex=&quot;1&quot; parent=&quot;1&quot;&gt;&#10;          &lt;mxGeometry x=&quot;100&quot; y=&quot;915&quot; width=&quot;100&quot; height=&quot;37.5&quot; as=&quot;geometry&quot; /&gt;&#10;        &lt;/mxCell&gt;&#10;        &lt;mxCell id=&quot;PIV7fX7Q7qkFLMhP4NvS-95&quot; value=&quot;&quot; style=&quot;verticalLabelPosition=bottom;verticalAlign=top;html=1;shape=mxgraph.basic.rect;fillColor2=none;strokeWidth=1;size=20;indent=5;&quot; vertex=&quot;1&quot; parent=&quot;1&quot;&gt;&#10;          &lt;mxGeometry x=&quot;25&quot; y=&quot;830&quot; width=&quot;250&quot; height=&quot;25&quot; as=&quot;geometry&quot; /&gt;&#10;        &lt;/mxCell&gt;&#10;        &lt;mxCell id=&quot;PIV7fX7Q7qkFLMhP4NvS-96&quot; value=&quot;&quot; style=&quot;verticalLabelPosition=bottom;verticalAlign=top;html=1;shape=mxgraph.basic.rect;fillColor2=none;strokeWidth=1;size=20;indent=5;&quot; vertex=&quot;1&quot; parent=&quot;1&quot;&gt;&#10;          &lt;mxGeometry x=&quot;25&quot; y=&quot;870&quot; width=&quot;250&quot; height=&quot;25&quot; as=&quot;geometry&quot; /&gt;&#10;        &lt;/mxCell&gt;&#10;        &lt;mxCell id=&quot;PIV7fX7Q7qkFLMhP4NvS-104&quot; value=&quot;&quot; style=&quot;ellipse;whiteSpace=wrap;html=1;aspect=fixed;&quot; vertex=&quot;1&quot; parent=&quot;1&quot;&gt;&#10;          &lt;mxGeometry x=&quot;100&quot; y=&quot;320&quot; width=&quot;100&quot; height=&quot;100&quot; as=&quot;geometry&quot; /&gt;&#10;        &lt;/mxCell&gt;&#10;        &lt;mxCell id=&quot;PIV7fX7Q7qkFLMhP4NvS-105&quot; value=&quot;&quot; style=&quot;rounded=0;whiteSpace=wrap;html=1;&quot; vertex=&quot;1&quot; parent=&quot;1&quot;&gt;&#10;          &lt;mxGeometry x=&quot;87.5&quot; y=&quot;435&quot; width=&quot;125&quot; height=&quot;25&quot; as=&quot;geometry&quot; /&gt;&#10;        &lt;/mxCell&gt;&#10;        &lt;mxCell id=&quot;PIV7fX7Q7qkFLMhP4NvS-109&quot; value=&quot;&quot; style=&quot;ellipse;whiteSpace=wrap;html=1;aspect=fixed;&quot; vertex=&quot;1&quot; parent=&quot;1&quot;&gt;&#10;          &lt;mxGeometry x=&quot;100&quot; y=&quot;485&quot; width=&quot;100&quot; height=&quot;100&quot; as=&quot;geometry&quot; /&gt;&#10;        &lt;/mxCell&gt;&#10;        &lt;mxCell id=&quot;PIV7fX7Q7qkFLMhP4NvS-110&quot; value=&quot;&quot; style=&quot;rounded=0;whiteSpace=wrap;html=1;&quot; vertex=&quot;1&quot; parent=&quot;1&quot;&gt;&#10;          &lt;mxGeometry x=&quot;87.5&quot; y=&quot;600&quot; width=&quot;125&quot; height=&quot;25&quot; as=&quot;geometry&quot; /&gt;&#10;        &lt;/mxCell&gt;&#10;        &lt;mxCell id=&quot;PIV7fX7Q7qkFLMhP4NvS-112&quot; value=&quot;&quot; style=&quot;rounded=0;whiteSpace=wrap;html=1;&quot; vertex=&quot;1&quot; parent=&quot;1&quot;&gt;&#10;          &lt;mxGeometry y=&quot;660&quot; width=&quot;300&quot; height=&quot;15&quot; as=&quot;geometry&quot; /&gt;&#10;        &lt;/mxCell&gt;&#10;        &lt;mxCell id=&quot;PIV7fX7Q7qkFLMhP4NvS-122&quot; value=&quot;&quot; style=&quot;rounded=0;whiteSpace=wrap;html=1;&quot; vertex=&quot;1&quot; parent=&quot;1&quot;&gt;&#10;          &lt;mxGeometry y=&quot;982.5&quot; width=&quot;300&quot; height=&quot;50&quot; as=&quot;geometry&quot; /&gt;&#10;        &lt;/mxCell&gt;&#10;      &lt;/root&gt;&#10;    &lt;/mxGraphModel&gt;&#10;  &lt;/diagram&gt;&#10;&lt;/mxfile&gt;&#10;"><defs/><g><g data-cell-id="0"><g data-cell-id="1"><g data-cell-id="PIV7fX7Q7qkFLMhP4NvS-5"><g><rect x="0" y="15" width="300" height="530" fill="#ffffff" stroke="none" pointer-events="all" style="fill: light-dark(#ffffff, var(--ge-dark-color, #121212));"/><path d="M 0 15 L 0 15 M 0 22.05 L 7.05 15 M 0 29.1 L 14.1 15 M 0 36.15 L 21.15 15 M 0 43.2 L 28.2 15 M 0 50.25 L 35.25 15 M 0 57.3 L 42.3 15 M 0 64.35 L 49.35 15 M 0 71.4 L 56.4 15 M 0 78.45 L 63.45 15 M 0 85.5 L 70.5 15 M 0 92.55 L 77.55 15 M 0 99.6 L 84.6 15 M 0 106.65 L 91.65 15 M 0 113.7 L 98.7 15 M 0 120.75 L 105.75 15 M 0 127.8 L 112.8 15 M 0 134.85 L 119.85 15 M 0 141.9 L 126.9 15 M 0 148.95 L 133.95 15 M 0 156 L 141 15 M 0 163.05 L 148.05 15 M 0 170.1 L 155.1 15 M 0 177.15 L 162.15 15 M 0 184.2 L 169.2 15 M 0 191.25 L 176.25 15 M 0 198.3 L 183.3 15 M 0 205.35 L 190.35 15 M 0 212.4 L 197.4 15 M 0 219.45 L 204.45 15 M 0 226.5 L 211.5 15 M 0 233.55 L 218.55 15 M 0 240.6 L 225.6 15 M 0 247.65 L 232.65 15 M 0 254.7 L 239.7 15 M 0 261.75 L 246.75 15 M 0 268.8 L 253.8 15 M 0 275.85 L 260.85 15 M 0 282.9 L 267.9 15 M 0 289.95 L 274.95 15 M 0 297 L 282 15 M 0 304.05 L 289.05 15 M 0 311.1 L 296.1 15 M 0 318.15 L 300 18.15 M 0 325.2 L 300 25.2 M 0 332.25 L 300 32.25 M 0 339.3 L 300 39.3 M 0 346.35 L 300 46.35 M 0 353.4 L 300 53.4 M 0 360.45 L 300 60.45 M 0 367.5 L 300 67.5 M 0 374.55 L 300 74.55 M 0 381.6 L 300 81.6 M 0 388.65 L 300 88.65 M 0 395.7 L 300 95.7 M 0 402.75 L 300 102.75 M 0 409.8 L 300 109.8 M 0 416.85 L 300 116.85 M 0 423.9 L 300 123.9 M 0 430.95 L 300 130.95 M 0 438 L 300 138 M 0 445.05 L 300 145.05 M 0 452.1 L 300 152.1 M 0 459.15 L 300 159.15 M 0 466.2 L 300 166.2 M 0 473.25 L 300 173.25 M 0 480.3 L 300 180.3 M 0 487.35 L 300 187.35 M 0 494.4 L 300 194.4 M 0 501.45 L 300 201.45 M 0 508.5 L 300 208.5 M 0 515.55 L 300 215.55 M 0 522.6 L 300 222.6 M 0 529.65 L 300 229.65 M 0 536.7 L 300 236.7 M 0 543.75 L 300 243.75 M 5.8 545 L 300 250.8 M 12.85 545 L 300 257.85 M 19.9 545 L 300 264.9 M 26.95 545 L 300 271.95 M 34 545 L 300 279 M 41.05 545 L 300 286.05 M 48.1 545 L 300 293.1 M 55.15 545 L 300 300.15 M 62.2 545 L 300 307.2 M 69.25 545 L 300 314.25 M 76.3 545 L 300 321.3 M 83.35 545 L 300 328.35 M 90.4 545 L 300 335.4 M 97.45 545 L 300 342.45 M 104.5 545 L 300 349.5 M 111.55 545 L 300 356.55 M 118.6 545 L 300 363.6 M 125.65 545 L 300 370.65 M 132.7 545 L 300 377.7 M 139.75 545 L 300 384.75 M 146.8 545 L 300 391.8 M 153.85 545 L 300 398.85 M 160.9 545 L 300 405.9 M 167.95 545 L 300 412.95 M 175 545 L 300 420 M 182.05 545 L 300 427.05 M 189.1 545 L 300 434.1 M 196.15 545 L 300 441.15 M 203.2 545 L 300 448.2 M 210.25 545 L 300 455.25 M 217.3 545 L 300 462.3 M 224.35 545 L 300 469.35 M 231.4 545 L 300 476.4 M 238.45 545 L 300 483.45 M 245.5 545 L 300 490.5 M 252.55 545 L 300 497.55 M 259.6 545 L 300 504.6 M 266.65 545 L 300 511.65 M 273.7 545 L 300 518.7 M 280.75 545 L 300 525.75 M 287.8 545 L 300 532.8 M 294.85 545 L 300 539.85" fill="none" stroke="#dddddd" stroke-width="0.2" stroke-miterlimit="10" pointer-events="all" style="stroke: light-dark(rgb(221, 221, 221), rgb(47, 47, 47));"/><path d="M 300 15 L 300 15 M 300 22.05 L 292.95 15 M 300 29.1 L 285.9 15 M 300 36.15 L 278.85 15 M 300 43.2 L 271.8 15 M 300 50.25 L 264.75 15 M 300 57.3 L 257.7 15 M 300 64.35 L 250.65 15 M 300 71.4 L 243.6 15 M 300 78.45 L 236.55 15 M 300 85.5 L 229.5 15 M 300 92.55 L 222.45 15 M 300 99.6 L 215.4 15 M 300 106.65 L 208.35 15 M 300 113.7 L 201.3 15 M 300 120.75 L 194.25 15 M 300 127.8 L 187.2 15 M 300 134.85 L 180.15 15 M 300 141.9 L 173.1 15 M 300 148.95 L 166.05 15 M 300 156 L 159 15 M 300 163.05 L 151.95 15 M 300 170.1 L 144.9 15 M 300 177.15 L 137.85 15 M 300 184.2 L 130.8 15 M 300 191.25 L 123.75 15 M 300 198.3 L 116.7 15 M 300 205.35 L 109.65 15 M 300 212.4 L 102.6 15 M 300 219.45 L 95.55 15 M 300 226.5 L 88.5 15 M 300 233.55 L 81.45 15 M 300 240.6 L 74.4 15 M 300 247.65 L 67.35 15 M 300 254.7 L 60.3 15 M 300 261.75 L 53.25 15 M 300 268.8 L 46.2 15 M 300 275.85 L 39.15 15 M 300 282.9 L 32.1 15 M 300 289.95 L 25.05 15 M 300 297 L 18 15 M 300 304.05 L 10.95 15 M 300 311.1 L 3.9 15 M 300 318.15 L 0 18.15 M 300 325.2 L 0 25.2 M 300 332.25 L 0 32.25 M 300 339.3 L 0 39.3 M 300 346.35 L 0 46.35 M 300 353.4 L 0 53.4 M 300 360.45 L 0 60.45 M 300 367.5 L 0 67.5 M 300 374.55 L 0 74.55 M 300 381.6 L 0 81.6 M 300 388.65 L 0 88.65 M 300 395.7 L 0 95.7 M 300 402.75 L 0 102.75 M 300 409.8 L 0 109.8 M 300 416.85 L 0 116.85 M 300 423.9 L 0 123.9 M 300 430.95 L 0 130.95 M 300 438 L 0 138 M 300 445.05 L 0 145.05 M 300 452.1 L 0 152.1 M 300 459.15 L 0 159.15 M 300 466.2 L 0 166.2 M 300 473.25 L 0 173.25 M 300 480.3 L 0 180.3 M 300 487.35 L 0 187.35 M 300 494.4 L 0 194.4 M 300 501.45 L 0 201.45 M 300 508.5 L 0 208.5 M 300 515.55 L 0 215.55 M 300 522.6 L 0 222.6 M 300 529.65 L 0 229.65 M 300 536.7 L 0 236.7 M 300 543.75 L 0 243.75 M 294.2 545 L 0 250.8 M 287.15 545 L 0 257.85 M 280.1 545 L 0 264.9 M 273.05 545 L 0 271.95 M 266 545 L 0 279 M 258.95 545 L 0 286.05 M 251.9 545 L 0 293.1 M 244.85 545 L 0 300.15 M 237.8 545 L 0 307.2 M 230.75 545 L 0 314.25 M 223.7 545 L 0 321.3 M 216.65 545 L 0 328.35 M 209.6 545 L 0 335.4 M 202.55 545 L 0 342.45 M 195.5 545 L 0 349.5 M 188.45 545 L 0 356.55 M 181.4 545 L 0 363.6 M 174.35 545 L 0 370.65 M 167.3 545 L 0 377.7 M 160.25 545 L 0 384.75 M 153.2 545 L 0 391.8 M 146.15 545 L 0 398.85 M 139.1 545 L 0 405.9 M 132.05 545 L 0 412.95 M 125 545 L 0 420 M 117.95 545 L 0 427.05 M 110.9 545 L 0 434.1 M 103.85 545 L 0 441.15 M 96.8 545 L 0 448.2 M 89.75 545 L 0 455.25 M 82.7 545 L 0 462.3 M 75.65 545 L 0 469.35 M 68.6 545 L 0 476.4 M 61.55 545 L 0 483.45 M 54.5 545 L 0 490.5 M 47.45 545 L 0 497.55 M 40.4 545 L 0 504.6 M 33.35 545 L 0 511.65 M 26.3 545 L 0 518.7 M 19.25 545 L 0 525.75 M 12.2 545 L 0 532.8 M 5.15 545 L 0 539.85" fill="none" stroke="#dddddd" stroke-width="0.2" stroke-miterlimit="10" pointer-events="all" style="stroke: light-dark(rgb(221, 221, 221), rgb(47, 47, 47));"/><path d="M 0 15 L 300 15 L 300 545 L 0 545 L 0 15" fill="none" stroke="#000000" stroke-miterlimit="10" pointer-events="all" style="stroke: light-dark(rgb(0, 0, 0), rgb(255, 255, 255));"/></g></g><g data-cell-id="PIV7fX7Q7qkFLMhP4NvS-27"><g><rect x="75" y="110" width="150" height="25" fill="#ffffff" stroke="#000000" pointer-events="all" style="fill: light-dark(#ffffff, var(--ge-dark-color, #121212)); stroke: light-dark(rgb(0, 0, 0), rgb(255, 255, 255));"/></g></g><g data-cell-id="PIV7fX7Q7qkFLMhP4NvS-29"><g><rect x="50" y="150" width="200" height="25" fill="#ffffff" stroke="#000000" pointer-events="all" style="fill: light-dark(#ffffff, var(--ge-dark-color, #121212)); stroke: light-dark(rgb(0, 0, 0), rgb(255, 255, 255));"/></g></g><g data-cell-id="PIV7fX7Q7qkFLMhP4NvS-2"><g><ellipse cx="65" cy="55" rx="50" ry="25" fill="#ffffff" stroke="#000000" pointer-events="all" style="fill: light-dark(#ffffff, var(--ge-dark-color, #121212)); stroke: light-dark(rgb(0, 0, 0), rgb(255, 255, 255));"/></g></g><g data-cell-id="PIV7fX7Q7qkFLMhP4NvS-42"><g><rect x="0" y="0" width="300" height="15" fill="#ffffff" stroke="#000000" pointer-events="all" style="fill: light-dark(#ffffff, var(--ge-dark-color, #121212)); stroke: light-dark(rgb(0, 0, 0), rgb(255, 255, 255));"/></g></g><g data-cell-id="PIV7fX7Q7qkFLMhP4NvS-44"><g><rect x="185" y="30" width="100" height="37.5" rx="5.63" ry="5.63" fill="#ffffff" stroke="#000000" pointer-events="all" style="fill: light-dark(#ffffff, var(--ge-dark-color, #121212)); stroke: light-dark(rgb(0, 0, 0), rgb(255, 255, 255));"/></g></g><g data-cell-id="PIV7fX7Q7qkFLMhP4NvS-47"><g><path d="M 0 560 L 300 560 L 300 867.5 L 0 867.5 L 0 560 Z" fill="#ffffff" stroke="none" pointer-events="all" style="fill: light-dark(#ffffff, var(--ge-dark-color, #121212));"/><path d="M 5 565 L 5 862.5 L 5 862.5 L 295 862.5 L 295 565 L 5 565" fill="transparent" stroke="none" pointer-events="all" style="fill: transparent;"/><path d="M 0 560 L 300 560 L 300 867.5 L 0 867.5 L 0 560 Z" fill="none" stroke="#000000" stroke-miterlimit="10" pointer-events="all" style="stroke: light-dark(rgb(0, 0, 0), rgb(255, 255, 255));"/></g></g><g data-cell-id="PIV7fX7Q7qkFLMhP4NvS-48"><g><path d="M 25 635 L 275 635 L 275 660 L 25 660 L 25 635 Z" fill="#ffffff" stroke="none" pointer-events="all" style="fill: light-dark(#ffffff, var(--ge-dark-color, #121212));"/><path d="M 25 635 L 25 660 L 25 660 L 275 660 L 275 635 L 25 635" fill="transparent" stroke="none" pointer-events="all" style="fill: transparent;"/><path d="M 25 635 L 275 635 L 275 660 L 25 660 L 25 635 Z" fill="none" stroke="#000000" stroke-miterlimit="10" pointer-events="all" style="stroke: light-dark(rgb(0, 0, 0), rgb(255, 255, 255));"/></g></g><g data-cell-id="PIV7fX7Q7qkFLMhP4NvS-79"><g><path d="M 25 675 L 275 675 L 275 700 L 25 700 L 25 675 Z" fill="#ffffff" stroke="none" pointer-events="all" style="fill: light-dark(#ffffff, var(--ge-dark-color, #121212));"/><path d="M 25 675 L 25 700 L 25 700 L 275 700 L 275 675 L 25 675" fill="transparent" stroke="none" pointer-events="all" style="fill: transparent;"/><path d="M 25 675 L 275 675 L 275 700 L 25 700 L 25 675 Z" fill="none" stroke="#000000" stroke-miterlimit="10" pointer-events="all" style="stroke: light-dark(rgb(0, 0, 0), rgb(255, 255, 255));"/></g></g><g data-cell-id="PIV7fX7Q7qkFLMhP4NvS-83"><g><path d="M 75 590 L 225 590 L 225 615 L 75 615 L 75 590 Z" fill="#ffffff" stroke="none" pointer-events="all" style="fill: light-dark(#ffffff, var(--ge-dark-color, #121212));"/><path d="M 75 590 L 75 615 L 75 615 L 225 615 L 225 590 L 75 590" fill="transparent" stroke="none" pointer-events="all" style="fill: transparent;"/><path d="M 75 590 L 225 590 L 225 615 L 75 615 L 75 590 Z" fill="none" stroke="#000000" stroke-miterlimit="10" pointer-events="all" style="stroke: light-dark(rgb(0, 0, 0), rgb(255, 255, 255));"/></g></g><g data-cell-id="PIV7fX7Q7qkFLMhP4NvS-85"><g><rect x="100" y="800" width="100" height="37.5" rx="5.63" ry="5.63" fill="#ffffff" stroke="#000000" pointer-events="all" style="fill: light-dark(#ffffff, var(--ge-dark-color, #121212)); stroke: light-dark(rgb(0, 0, 0), rgb(255, 255, 255));"/></g></g><g data-cell-id="PIV7fX7Q7qkFLMhP4NvS-95"><g><path d="M 25 715 L 275 715 L 275 740 L 25 740 L 25 715 Z" fill="#ffffff" stroke="none" pointer-events="all" style="fill: light-dark(#ffffff, var(--ge-dark-color, #121212));"/><path d="M 25 715 L 25 740 L 25 740 L 275 740 L 275 715 L 25 715" fill="transparent" stroke="none" pointer-events="all" style="fill: transparent;"/><path d="M 25 715 L 275 715 L 275 740 L 25 740 L 25 715 Z" fill="none" stroke="#000000" stroke-miterlimit="10" pointer-events="all" style="stroke: light-dark(rgb(0, 0, 0), rgb(255, 255, 255));"/></g></g><g data-cell-id="PIV7fX7Q7qkFLMhP4NvS-96"><g><path d="M 25 755 L 275 755 L 275 780 L 25 780 L 25 755 Z" fill="#ffffff" stroke="none" pointer-events="all" style="fill: light-dark(#ffffff, var(--ge-dark-color, #121212));"/><path d="M 25 755 L 25 780 L 25 780 L 275 780 L 275 755 L 25 755" fill="transparent" stroke="none" pointer-events="all" style="fill: transparent;"/><path d="M 25 755 L 275 755 L 275 780 L 25 780 L 25 755 Z" fill="none" stroke="#000000" stroke-miterlimit="10" pointer-events="all" style="stroke: light-dark(rgb(0, 0, 0), rgb(255, 255, 255));"/></g></g><g data-cell-id="PIV7fX7Q7qkFLMhP4NvS-104"><g><ellipse cx="150" cy="255" rx="50" ry="50" fill="#ffffff" stroke="#000000" pointer-events="all" style="fill: light-dark(#ffffff, var(--ge-dark-color, #121212)); stroke: light-dark(rgb(0, 0, 0), rgb(255, 255, 255));"/></g></g><g data-cell-id="PIV7fX7Q7qkFLMhP4NvS-105"><g><rect x="87.5" y="320" width="125" height="25" fill="#ffffff" stroke="#000000" pointer-events="all" style="fill: light-dark(#ffffff, var(--ge-dark-color, #121212)); stroke: light-dark(rgb(0, 0, 0), rgb(255, 255, 255));"/></g></g><g data-cell-id="PIV7fX7Q7qkFLMhP4NvS-109"><g><ellipse cx="150" cy="420" rx="50" ry="50" fill="#ffffff" stroke="#000000" pointer-events="all" style="fill: light-dark(#ffffff, var(--ge-dark-color, #121212)); stroke: light-dark(rgb(0, 0, 0), rgb(255, 255, 255));"/></g></g><g data-cell-id="PIV7fX7Q7qkFLMhP4NvS-110"><g><rect x="87.5" y="485" width="125" height="25" fill="#ffffff" stroke="#000000" pointer-events="all" style="fill: light-dark(#ffffff, var(--ge-dark-color, #121212)); stroke: light-dark(rgb(0, 0, 0), rgb(255, 255, 255));"/></g></g><g data-cell-id="PIV7fX7Q7qkFLMhP4NvS-112"><g><rect x="0" y="545" width="300" height="15" fill="#ffffff" stroke="#000000" pointer-events="all" style="fill: light-dark(#ffffff, var(--ge-dark-color, #121212)); stroke: light-dark(rgb(0, 0, 0), rgb(255, 255, 255));"/></g></g><g data-cell-id="PIV7fX7Q7qkFLMhP4NvS-122"><g><rect x="0" y="867.5" width="300" height="50" fill="#ffffff" stroke="#000000" pointer-events="all" style="fill: light-dark(#ffffff, var(--ge-dark-color, #121212)); stroke: light-dark(rgb(0, 0, 0), rgb(255, 255, 255));"/></g></g></g></g></g></svg>